<mxfile host="app.diagrams.net" agent="Mozilla/5.0 (Windows NT 10.0; Win64; x64) AppleWebKit/537.36 (KHTML, like Gecko) Chrome/127.0.0.0 Safari/537.36 Edg/127.0.0.0" version="24.7.7">
  <diagram name="Page-1" id="E2g6yoVYKj6hKgyuPi02">
    <mxGraphModel dx="979" dy="575" grid="1" gridSize="10" guides="1" tooltips="1" connect="1" arrows="1" fold="1" page="1" pageScale="1" pageWidth="850" pageHeight="1100" math="0" shadow="0">
      <root>
        <mxCell id="0" />
        <mxCell id="1" parent="0" />
        <mxCell id="pa6gpyf7rV9sRwyNa2Qg-1" value="Router office 1" style="whiteSpace=wrap;html=1;aspect=fixed;labelPosition=center;verticalLabelPosition=bottom;align=center;verticalAlign=top;" vertex="1" parent="1">
          <mxGeometry x="230" y="80" width="80" height="80" as="geometry" />
        </mxCell>
        <mxCell id="pa6gpyf7rV9sRwyNa2Qg-2" value="Router office 2" style="whiteSpace=wrap;html=1;aspect=fixed;labelPosition=center;verticalLabelPosition=bottom;align=center;verticalAlign=top;" vertex="1" parent="1">
          <mxGeometry x="330" y="80" width="80" height="80" as="geometry" />
        </mxCell>
        <mxCell id="pa6gpyf7rV9sRwyNa2Qg-3" value="IT department" style="whiteSpace=wrap;html=1;aspect=fixed;labelPosition=center;verticalLabelPosition=bottom;align=center;verticalAlign=top;" vertex="1" parent="1">
          <mxGeometry x="50" y="112.5" width="160" height="160" as="geometry" />
        </mxCell>
        <mxCell id="pa6gpyf7rV9sRwyNa2Qg-4" value="HR Department" style="whiteSpace=wrap;html=1;aspect=fixed;labelPosition=center;verticalLabelPosition=bottom;align=center;verticalAlign=top;" vertex="1" parent="1">
          <mxGeometry x="50" y="312.5" width="160" height="160" as="geometry" />
        </mxCell>
        <mxCell id="pa6gpyf7rV9sRwyNa2Qg-5" value="Management" style="whiteSpace=wrap;html=1;aspect=fixed;labelPosition=center;verticalLabelPosition=bottom;align=center;verticalAlign=top;" vertex="1" parent="1">
          <mxGeometry x="50" y="512.5" width="160" height="160" as="geometry" />
        </mxCell>
        <mxCell id="pa6gpyf7rV9sRwyNa2Qg-10" value="" style="image;points=[];aspect=fixed;html=1;align=center;shadow=0;dashed=0;image=img/lib/allied_telesis/computer_and_terminals/Personal_Computer_Wireless.svg;" vertex="1" parent="1">
          <mxGeometry x="60" y="632.5" width="33.56" height="34.2" as="geometry" />
        </mxCell>
        <mxCell id="pa6gpyf7rV9sRwyNa2Qg-11" value="" style="image;points=[];aspect=fixed;html=1;align=center;shadow=0;dashed=0;image=img/lib/allied_telesis/computer_and_terminals/Personal_Computer_Wireless.svg;" vertex="1" parent="1">
          <mxGeometry x="100" y="632.5" width="33.56" height="34.2" as="geometry" />
        </mxCell>
        <mxCell id="pa6gpyf7rV9sRwyNa2Qg-12" value="" style="verticalLabelPosition=bottom;html=1;verticalAlign=top;align=center;strokeColor=none;fillColor=#00BEF2;shape=mxgraph.azure.laptop;pointerEvents=1;" vertex="1" parent="1">
          <mxGeometry x="140" y="632.5" width="50" height="30" as="geometry" />
        </mxCell>
        <mxCell id="pa6gpyf7rV9sRwyNa2Qg-13" value="" style="html=1;verticalLabelPosition=bottom;align=center;labelBackgroundColor=#ffffff;verticalAlign=top;strokeWidth=2;strokeColor=#0080F0;shadow=0;dashed=0;shape=mxgraph.ios7.icons.printer;" vertex="1" parent="1">
          <mxGeometry x="62" y="602.5" width="30" height="25.5" as="geometry" />
        </mxCell>
        <mxCell id="pa6gpyf7rV9sRwyNa2Qg-14" value="" style="html=1;verticalLabelPosition=bottom;align=center;labelBackgroundColor=#ffffff;verticalAlign=top;strokeWidth=2;strokeColor=#0080F0;shadow=0;dashed=0;shape=mxgraph.ios7.icons.smartphone;" vertex="1" parent="1">
          <mxGeometry x="68" y="552.5" width="18" height="30" as="geometry" />
        </mxCell>
        <mxCell id="pa6gpyf7rV9sRwyNa2Qg-19" style="edgeStyle=none;rounded=0;orthogonalLoop=1;jettySize=auto;html=1;exitX=0.5;exitY=0.313;exitDx=0;exitDy=0;endArrow=none;endFill=0;exitPerimeter=0;entryX=0.596;entryY=0.877;entryDx=0;entryDy=0;entryPerimeter=0;" edge="1" parent="1" source="pa6gpyf7rV9sRwyNa2Qg-15" target="pa6gpyf7rV9sRwyNa2Qg-11">
          <mxGeometry relative="1" as="geometry" />
        </mxCell>
        <mxCell id="pa6gpyf7rV9sRwyNa2Qg-20" style="edgeStyle=none;rounded=0;orthogonalLoop=1;jettySize=auto;html=1;exitX=0.5;exitY=1;exitDx=0;exitDy=0;endArrow=none;endFill=0;" edge="1" parent="1" source="pa6gpyf7rV9sRwyNa2Qg-15" target="pa6gpyf7rV9sRwyNa2Qg-12">
          <mxGeometry relative="1" as="geometry" />
        </mxCell>
        <mxCell id="pa6gpyf7rV9sRwyNa2Qg-21" style="edgeStyle=none;rounded=0;orthogonalLoop=1;jettySize=auto;html=1;exitX=0.5;exitY=1;exitDx=0;exitDy=0;entryX=0.625;entryY=0.313;entryDx=0;entryDy=0;entryPerimeter=0;" edge="1" parent="1" source="pa6gpyf7rV9sRwyNa2Qg-15" target="pa6gpyf7rV9sRwyNa2Qg-15">
          <mxGeometry relative="1" as="geometry" />
        </mxCell>
        <mxCell id="pa6gpyf7rV9sRwyNa2Qg-22" style="edgeStyle=none;rounded=0;orthogonalLoop=1;jettySize=auto;html=1;exitX=0.375;exitY=0.313;exitDx=0;exitDy=0;exitPerimeter=0;entryX=0.298;entryY=0.585;entryDx=0;entryDy=0;entryPerimeter=0;" edge="1" parent="1" source="pa6gpyf7rV9sRwyNa2Qg-15" target="pa6gpyf7rV9sRwyNa2Qg-10">
          <mxGeometry relative="1" as="geometry" />
        </mxCell>
        <mxCell id="pa6gpyf7rV9sRwyNa2Qg-23" style="edgeStyle=none;rounded=0;orthogonalLoop=1;jettySize=auto;html=1;exitX=0.25;exitY=0.313;exitDx=0;exitDy=0;entryX=0.3;entryY=0.706;entryDx=0;entryDy=0;entryPerimeter=0;exitPerimeter=0;endArrow=none;endFill=0;" edge="1" parent="1" source="pa6gpyf7rV9sRwyNa2Qg-15" target="pa6gpyf7rV9sRwyNa2Qg-13">
          <mxGeometry relative="1" as="geometry" />
        </mxCell>
        <mxCell id="pa6gpyf7rV9sRwyNa2Qg-25" style="edgeStyle=none;rounded=0;orthogonalLoop=1;jettySize=auto;html=1;entryX=0.165;entryY=0.456;entryDx=0;entryDy=0;entryPerimeter=0;" edge="1" parent="1" target="pa6gpyf7rV9sRwyNa2Qg-16">
          <mxGeometry relative="1" as="geometry">
            <mxPoint x="180" y="562.5" as="sourcePoint" />
          </mxGeometry>
        </mxCell>
        <mxCell id="pa6gpyf7rV9sRwyNa2Qg-16" value="" style="shape=mxgraph.cisco.misc.lightweight_ap;html=1;pointerEvents=1;dashed=0;fillColor=#036897;strokeColor=#ffffff;strokeWidth=2;verticalLabelPosition=bottom;verticalAlign=top;align=center;outlineConnect=0;" vertex="1" parent="1">
          <mxGeometry x="93.56" y="527.5" width="33" height="25" as="geometry" />
        </mxCell>
        <mxCell id="pa6gpyf7rV9sRwyNa2Qg-26" style="edgeStyle=none;rounded=0;orthogonalLoop=1;jettySize=auto;html=1;exitX=0;exitY=1;exitDx=0;exitDy=0;exitPerimeter=0;entryX=0.367;entryY=0.987;entryDx=0;entryDy=0;entryPerimeter=0;endArrow=none;endFill=0;" edge="1" parent="1" source="pa6gpyf7rV9sRwyNa2Qg-16" target="pa6gpyf7rV9sRwyNa2Qg-14">
          <mxGeometry relative="1" as="geometry" />
        </mxCell>
        <mxCell id="pa6gpyf7rV9sRwyNa2Qg-30" value="" style="html=1;verticalLabelPosition=bottom;align=center;labelBackgroundColor=#ffffff;verticalAlign=top;strokeWidth=2;strokeColor=#0080F0;shadow=0;dashed=0;shape=mxgraph.ios7.icons.printer;" vertex="1" parent="1">
          <mxGeometry x="56" y="407" width="30" height="25.5" as="geometry" />
        </mxCell>
        <mxCell id="pa6gpyf7rV9sRwyNa2Qg-31" value="" style="html=1;verticalLabelPosition=bottom;align=center;labelBackgroundColor=#ffffff;verticalAlign=top;strokeWidth=2;strokeColor=#0080F0;shadow=0;dashed=0;shape=mxgraph.ios7.icons.smartphone;" vertex="1" parent="1">
          <mxGeometry x="60" y="354" width="18" height="30" as="geometry" />
        </mxCell>
        <mxCell id="pa6gpyf7rV9sRwyNa2Qg-32" value="" style="shape=mxgraph.cisco.misc.lightweight_ap;html=1;pointerEvents=1;dashed=0;fillColor=#036897;strokeColor=#ffffff;strokeWidth=2;verticalLabelPosition=bottom;verticalAlign=top;align=center;outlineConnect=0;" vertex="1" parent="1">
          <mxGeometry x="97" y="329" width="33" height="25" as="geometry" />
        </mxCell>
        <mxCell id="pa6gpyf7rV9sRwyNa2Qg-34" style="edgeStyle=none;rounded=0;orthogonalLoop=1;jettySize=auto;html=1;exitX=0.625;exitY=0.5;exitDx=0;exitDy=0;exitPerimeter=0;entryX=0.642;entryY=0.877;entryDx=0;entryDy=0;entryPerimeter=0;endArrow=none;endFill=0;" edge="1" parent="1" source="pa6gpyf7rV9sRwyNa2Qg-33" target="pa6gpyf7rV9sRwyNa2Qg-28">
          <mxGeometry relative="1" as="geometry" />
        </mxCell>
        <mxCell id="pa6gpyf7rV9sRwyNa2Qg-35" style="edgeStyle=none;rounded=0;orthogonalLoop=1;jettySize=auto;html=1;exitX=0.5;exitY=0.375;exitDx=0;exitDy=0;entryX=0.617;entryY=0.556;entryDx=0;entryDy=0;entryPerimeter=0;endArrow=none;endFill=0;exitPerimeter=0;" edge="1" parent="1" source="pa6gpyf7rV9sRwyNa2Qg-33" target="pa6gpyf7rV9sRwyNa2Qg-30">
          <mxGeometry relative="1" as="geometry" />
        </mxCell>
        <mxCell id="pa6gpyf7rV9sRwyNa2Qg-36" style="edgeStyle=none;rounded=0;orthogonalLoop=1;jettySize=auto;html=1;entryX=0.065;entryY=0.211;entryDx=0;entryDy=0;entryPerimeter=0;endArrow=none;endFill=0;" edge="1" parent="1" source="pa6gpyf7rV9sRwyNa2Qg-32" target="pa6gpyf7rV9sRwyNa2Qg-31">
          <mxGeometry relative="1" as="geometry" />
        </mxCell>
        <mxCell id="pa6gpyf7rV9sRwyNa2Qg-28" value="" style="image;points=[];aspect=fixed;html=1;align=center;shadow=0;dashed=0;image=img/lib/allied_telesis/computer_and_terminals/Personal_Computer_Wireless.svg;" vertex="1" parent="1">
          <mxGeometry x="58.44" y="432.5" width="33.56" height="34.2" as="geometry" />
        </mxCell>
        <mxCell id="pa6gpyf7rV9sRwyNa2Qg-37" style="edgeStyle=none;rounded=0;orthogonalLoop=1;jettySize=auto;html=1;exitX=0.9;exitY=0.72;exitDx=0;exitDy=0;exitPerimeter=0;entryX=0.625;entryY=0.625;entryDx=0;entryDy=0;entryPerimeter=0;" edge="1" parent="1" source="pa6gpyf7rV9sRwyNa2Qg-32" target="pa6gpyf7rV9sRwyNa2Qg-33">
          <mxGeometry relative="1" as="geometry" />
        </mxCell>
        <mxCell id="pa6gpyf7rV9sRwyNa2Qg-39" value="" style="shape=mxgraph.cisco.misc.lightweight_ap;html=1;pointerEvents=1;dashed=0;fillColor=#036897;strokeColor=#ffffff;strokeWidth=2;verticalLabelPosition=bottom;verticalAlign=top;align=center;outlineConnect=0;" vertex="1" parent="1">
          <mxGeometry x="100" y="125" width="33" height="25" as="geometry" />
        </mxCell>
        <mxCell id="pa6gpyf7rV9sRwyNa2Qg-40" value="" style="html=1;verticalLabelPosition=bottom;align=center;labelBackgroundColor=#ffffff;verticalAlign=top;strokeWidth=2;strokeColor=#0080F0;shadow=0;dashed=0;shape=mxgraph.ios7.icons.smartphone;" vertex="1" parent="1">
          <mxGeometry x="56" y="132.5" width="18" height="30" as="geometry" />
        </mxCell>
        <mxCell id="pa6gpyf7rV9sRwyNa2Qg-45" style="edgeStyle=none;rounded=0;orthogonalLoop=1;jettySize=auto;html=1;exitX=0.583;exitY=0.4;exitDx=0;exitDy=0;entryX=0.6;entryY=0.623;entryDx=0;entryDy=0;entryPerimeter=0;exitPerimeter=0;" edge="1" parent="1" source="pa6gpyf7rV9sRwyNa2Qg-38" target="pa6gpyf7rV9sRwyNa2Qg-42">
          <mxGeometry relative="1" as="geometry" />
        </mxCell>
        <mxCell id="pa6gpyf7rV9sRwyNa2Qg-46" style="edgeStyle=none;rounded=0;orthogonalLoop=1;jettySize=auto;html=1;exitX=0.5;exitY=0.4;exitDx=0;exitDy=0;entryX=0.4;entryY=0.755;entryDx=0;entryDy=0;entryPerimeter=0;exitPerimeter=0;" edge="1" parent="1" source="pa6gpyf7rV9sRwyNa2Qg-38" target="pa6gpyf7rV9sRwyNa2Qg-43">
          <mxGeometry relative="1" as="geometry" />
        </mxCell>
        <mxCell id="pa6gpyf7rV9sRwyNa2Qg-47" style="edgeStyle=none;rounded=0;orthogonalLoop=1;jettySize=auto;html=1;entryX=0.364;entryY=0.434;entryDx=0;entryDy=0;entryPerimeter=0;" edge="1" parent="1" target="pa6gpyf7rV9sRwyNa2Qg-44">
          <mxGeometry relative="1" as="geometry">
            <mxPoint x="180" y="132.5" as="sourcePoint" />
          </mxGeometry>
        </mxCell>
        <mxCell id="pa6gpyf7rV9sRwyNa2Qg-42" value="" style="image;html=1;image=img/lib/clip_art/computers/Server_Rack_128x128.png" vertex="1" parent="1">
          <mxGeometry x="160" y="219.5" width="50" height="53" as="geometry" />
        </mxCell>
        <mxCell id="pa6gpyf7rV9sRwyNa2Qg-43" value="" style="image;html=1;image=img/lib/clip_art/computers/Server_Rack_128x128.png" vertex="1" parent="1">
          <mxGeometry x="110" y="222.5" width="50" height="53" as="geometry" />
        </mxCell>
        <mxCell id="pa6gpyf7rV9sRwyNa2Qg-48" style="edgeStyle=none;rounded=0;orthogonalLoop=1;jettySize=auto;html=1;exitX=0.5;exitY=0.4;exitDx=0;exitDy=0;entryX=0.273;entryY=0.99;entryDx=0;entryDy=0;entryPerimeter=0;exitPerimeter=0;endArrow=none;endFill=0;" edge="1" parent="1" source="pa6gpyf7rV9sRwyNa2Qg-38" target="pa6gpyf7rV9sRwyNa2Qg-41">
          <mxGeometry relative="1" as="geometry" />
        </mxCell>
        <mxCell id="pa6gpyf7rV9sRwyNa2Qg-41" value="" style="image;points=[];aspect=fixed;html=1;align=center;shadow=0;dashed=0;image=img/lib/allied_telesis/computer_and_terminals/Personal_Computer_Wireless.svg;" vertex="1" parent="1">
          <mxGeometry x="52.44" y="175.39999999999998" width="33.56" height="34.2" as="geometry" />
        </mxCell>
        <mxCell id="pa6gpyf7rV9sRwyNa2Qg-49" style="edgeStyle=none;rounded=0;orthogonalLoop=1;jettySize=auto;html=1;exitX=0;exitY=0.5;exitDx=0;exitDy=0;entryX=0.583;entryY=0.453;entryDx=0;entryDy=0;entryPerimeter=0;endArrow=none;endFill=0;" edge="1" parent="1" source="pa6gpyf7rV9sRwyNa2Qg-38" target="pa6gpyf7rV9sRwyNa2Qg-39">
          <mxGeometry relative="1" as="geometry" />
        </mxCell>
        <mxCell id="pa6gpyf7rV9sRwyNa2Qg-50" style="edgeStyle=none;rounded=0;orthogonalLoop=1;jettySize=auto;html=1;exitX=0;exitY=0.5;exitDx=0;exitDy=0;exitPerimeter=0;entryX=0.833;entryY=0.755;entryDx=0;entryDy=0;entryPerimeter=0;endArrow=none;endFill=0;" edge="1" parent="1" source="pa6gpyf7rV9sRwyNa2Qg-39" target="pa6gpyf7rV9sRwyNa2Qg-40">
          <mxGeometry relative="1" as="geometry" />
        </mxCell>
        <mxCell id="pa6gpyf7rV9sRwyNa2Qg-51" value="" style="image;html=1;image=img/lib/clip_art/networking/Router_128x128.png" vertex="1" parent="1">
          <mxGeometry x="230" y="85" width="80" height="80" as="geometry" />
        </mxCell>
        <mxCell id="pa6gpyf7rV9sRwyNa2Qg-53" style="edgeStyle=none;rounded=0;orthogonalLoop=1;jettySize=auto;html=1;exitX=0;exitY=0.5;exitDx=0;exitDy=0;entryX=0.333;entryY=0.5;entryDx=0;entryDy=0;entryPerimeter=0;" edge="1" parent="1" source="pa6gpyf7rV9sRwyNa2Qg-51" target="pa6gpyf7rV9sRwyNa2Qg-38">
          <mxGeometry relative="1" as="geometry" />
        </mxCell>
        <mxCell id="pa6gpyf7rV9sRwyNa2Qg-93" value="IT department" style="whiteSpace=wrap;html=1;aspect=fixed;labelPosition=center;verticalLabelPosition=bottom;align=center;verticalAlign=top;" vertex="1" parent="1">
          <mxGeometry x="450" y="112.5" width="160" height="160" as="geometry" />
        </mxCell>
        <mxCell id="pa6gpyf7rV9sRwyNa2Qg-94" value="HR Department" style="whiteSpace=wrap;html=1;aspect=fixed;labelPosition=center;verticalLabelPosition=bottom;align=center;verticalAlign=top;" vertex="1" parent="1">
          <mxGeometry x="450" y="312.5" width="160" height="160" as="geometry" />
        </mxCell>
        <mxCell id="pa6gpyf7rV9sRwyNa2Qg-95" value="Management" style="whiteSpace=wrap;html=1;aspect=fixed;labelPosition=center;verticalLabelPosition=bottom;align=center;verticalAlign=top;" vertex="1" parent="1">
          <mxGeometry x="450" y="512.5" width="160" height="160" as="geometry" />
        </mxCell>
        <mxCell id="pa6gpyf7rV9sRwyNa2Qg-98" value="" style="verticalLabelPosition=bottom;html=1;verticalAlign=top;align=center;strokeColor=none;fillColor=#00BEF2;shape=mxgraph.azure.laptop;pointerEvents=1;" vertex="1" parent="1">
          <mxGeometry x="540" y="632.5" width="50" height="30" as="geometry" />
        </mxCell>
        <mxCell id="pa6gpyf7rV9sRwyNa2Qg-102" style="edgeStyle=none;rounded=0;orthogonalLoop=1;jettySize=auto;html=1;exitX=0.5;exitY=1;exitDx=0;exitDy=0;endArrow=none;endFill=0;" edge="1" parent="1" source="pa6gpyf7rV9sRwyNa2Qg-107" target="pa6gpyf7rV9sRwyNa2Qg-98">
          <mxGeometry relative="1" as="geometry" />
        </mxCell>
        <mxCell id="pa6gpyf7rV9sRwyNa2Qg-103" style="edgeStyle=none;rounded=0;orthogonalLoop=1;jettySize=auto;html=1;exitX=0.5;exitY=1;exitDx=0;exitDy=0;entryX=0.625;entryY=0.313;entryDx=0;entryDy=0;entryPerimeter=0;" edge="1" parent="1" source="pa6gpyf7rV9sRwyNa2Qg-107" target="pa6gpyf7rV9sRwyNa2Qg-107">
          <mxGeometry relative="1" as="geometry" />
        </mxCell>
        <mxCell id="pa6gpyf7rV9sRwyNa2Qg-105" style="edgeStyle=none;rounded=0;orthogonalLoop=1;jettySize=auto;html=1;exitX=0.25;exitY=0.313;exitDx=0;exitDy=0;entryX=0.3;entryY=0.706;entryDx=0;entryDy=0;entryPerimeter=0;exitPerimeter=0;endArrow=none;endFill=0;" edge="1" parent="1" source="pa6gpyf7rV9sRwyNa2Qg-141">
          <mxGeometry relative="1" as="geometry">
            <mxPoint x="470.9999999999998" y="620.5029999999999" as="targetPoint" />
          </mxGeometry>
        </mxCell>
        <mxCell id="pa6gpyf7rV9sRwyNa2Qg-106" style="edgeStyle=none;rounded=0;orthogonalLoop=1;jettySize=auto;html=1;entryX=0.165;entryY=0.456;entryDx=0;entryDy=0;entryPerimeter=0;" edge="1" parent="1" target="pa6gpyf7rV9sRwyNa2Qg-108">
          <mxGeometry relative="1" as="geometry">
            <mxPoint x="580" y="562.5" as="sourcePoint" />
          </mxGeometry>
        </mxCell>
        <mxCell id="pa6gpyf7rV9sRwyNa2Qg-108" value="" style="shape=mxgraph.cisco.misc.lightweight_ap;html=1;pointerEvents=1;dashed=0;fillColor=#036897;strokeColor=#ffffff;strokeWidth=2;verticalLabelPosition=bottom;verticalAlign=top;align=center;outlineConnect=0;" vertex="1" parent="1">
          <mxGeometry x="493.55999999999995" y="527.5" width="33" height="25" as="geometry" />
        </mxCell>
        <mxCell id="pa6gpyf7rV9sRwyNa2Qg-110" value="" style="html=1;verticalLabelPosition=bottom;align=center;labelBackgroundColor=#ffffff;verticalAlign=top;strokeWidth=2;strokeColor=#0080F0;shadow=0;dashed=0;shape=mxgraph.ios7.icons.printer;" vertex="1" parent="1">
          <mxGeometry x="456" y="407" width="30" height="25.5" as="geometry" />
        </mxCell>
        <mxCell id="pa6gpyf7rV9sRwyNa2Qg-112" value="" style="shape=mxgraph.cisco.misc.lightweight_ap;html=1;pointerEvents=1;dashed=0;fillColor=#036897;strokeColor=#ffffff;strokeWidth=2;verticalLabelPosition=bottom;verticalAlign=top;align=center;outlineConnect=0;" vertex="1" parent="1">
          <mxGeometry x="497" y="329" width="33" height="25" as="geometry" />
        </mxCell>
        <mxCell id="pa6gpyf7rV9sRwyNa2Qg-113" style="edgeStyle=none;rounded=0;orthogonalLoop=1;jettySize=auto;html=1;exitX=0.625;exitY=0.5;exitDx=0;exitDy=0;exitPerimeter=0;entryX=0.642;entryY=0.877;entryDx=0;entryDy=0;entryPerimeter=0;endArrow=none;endFill=0;" edge="1" parent="1" source="pa6gpyf7rV9sRwyNa2Qg-118">
          <mxGeometry relative="1" as="geometry">
            <mxPoint x="479.98551999999995" y="462.49339999999984" as="targetPoint" />
          </mxGeometry>
        </mxCell>
        <mxCell id="pa6gpyf7rV9sRwyNa2Qg-114" style="edgeStyle=none;rounded=0;orthogonalLoop=1;jettySize=auto;html=1;exitX=0.5;exitY=0.375;exitDx=0;exitDy=0;entryX=0.617;entryY=0.556;entryDx=0;entryDy=0;entryPerimeter=0;endArrow=none;endFill=0;exitPerimeter=0;" edge="1" parent="1" source="pa6gpyf7rV9sRwyNa2Qg-118" target="pa6gpyf7rV9sRwyNa2Qg-110">
          <mxGeometry relative="1" as="geometry" />
        </mxCell>
        <mxCell id="pa6gpyf7rV9sRwyNa2Qg-117" style="edgeStyle=none;rounded=0;orthogonalLoop=1;jettySize=auto;html=1;exitX=0.9;exitY=0.72;exitDx=0;exitDy=0;exitPerimeter=0;entryX=0.625;entryY=0.625;entryDx=0;entryDy=0;entryPerimeter=0;" edge="1" parent="1" source="pa6gpyf7rV9sRwyNa2Qg-112" target="pa6gpyf7rV9sRwyNa2Qg-118">
          <mxGeometry relative="1" as="geometry" />
        </mxCell>
        <mxCell id="pa6gpyf7rV9sRwyNa2Qg-119" value="" style="shape=mxgraph.cisco.misc.lightweight_ap;html=1;pointerEvents=1;dashed=0;fillColor=#036897;strokeColor=#ffffff;strokeWidth=2;verticalLabelPosition=bottom;verticalAlign=top;align=center;outlineConnect=0;" vertex="1" parent="1">
          <mxGeometry x="500" y="125" width="33" height="25" as="geometry" />
        </mxCell>
        <mxCell id="pa6gpyf7rV9sRwyNa2Qg-123" style="edgeStyle=none;rounded=0;orthogonalLoop=1;jettySize=auto;html=1;entryX=0.364;entryY=0.434;entryDx=0;entryDy=0;entryPerimeter=0;" edge="1" parent="1" target="pa6gpyf7rV9sRwyNa2Qg-126">
          <mxGeometry relative="1" as="geometry">
            <mxPoint x="580" y="132.5" as="sourcePoint" />
          </mxGeometry>
        </mxCell>
        <mxCell id="pa6gpyf7rV9sRwyNa2Qg-134" value="" style="edgeStyle=none;rounded=0;orthogonalLoop=1;jettySize=auto;html=1;" edge="1" parent="1" source="pa6gpyf7rV9sRwyNa2Qg-126" target="pa6gpyf7rV9sRwyNa2Qg-132">
          <mxGeometry relative="1" as="geometry" />
        </mxCell>
        <mxCell id="pa6gpyf7rV9sRwyNa2Qg-127" style="edgeStyle=none;rounded=0;orthogonalLoop=1;jettySize=auto;html=1;exitX=0.5;exitY=0.4;exitDx=0;exitDy=0;entryX=0.273;entryY=0.99;entryDx=0;entryDy=0;entryPerimeter=0;exitPerimeter=0;endArrow=none;endFill=0;" edge="1" parent="1" source="pa6gpyf7rV9sRwyNa2Qg-131" target="pa6gpyf7rV9sRwyNa2Qg-128">
          <mxGeometry relative="1" as="geometry" />
        </mxCell>
        <mxCell id="pa6gpyf7rV9sRwyNa2Qg-128" value="" style="image;points=[];aspect=fixed;html=1;align=center;shadow=0;dashed=0;image=img/lib/allied_telesis/computer_and_terminals/Personal_Computer_Wireless.svg;" vertex="1" parent="1">
          <mxGeometry x="452.44000000000005" y="175.39999999999998" width="33.56" height="34.2" as="geometry" />
        </mxCell>
        <mxCell id="pa6gpyf7rV9sRwyNa2Qg-129" style="edgeStyle=none;rounded=0;orthogonalLoop=1;jettySize=auto;html=1;exitX=0;exitY=0.5;exitDx=0;exitDy=0;entryX=0.583;entryY=0.453;entryDx=0;entryDy=0;entryPerimeter=0;endArrow=none;endFill=0;" edge="1" parent="1" source="pa6gpyf7rV9sRwyNa2Qg-131" target="pa6gpyf7rV9sRwyNa2Qg-119">
          <mxGeometry relative="1" as="geometry" />
        </mxCell>
        <mxCell id="pa6gpyf7rV9sRwyNa2Qg-133" style="edgeStyle=none;rounded=0;orthogonalLoop=1;jettySize=auto;html=1;exitX=0.5;exitY=0.5;exitDx=0;exitDy=0;entryX=0.487;entryY=0.855;entryDx=0;entryDy=0;entryPerimeter=0;exitPerimeter=0;" edge="1" parent="1" source="pa6gpyf7rV9sRwyNa2Qg-131" target="pa6gpyf7rV9sRwyNa2Qg-132">
          <mxGeometry relative="1" as="geometry" />
        </mxCell>
        <mxCell id="pa6gpyf7rV9sRwyNa2Qg-132" value="" style="image;points=[];aspect=fixed;html=1;align=center;shadow=0;dashed=0;image=img/lib/allied_telesis/computer_and_terminals/Personal_Computer_Wireless.svg;" vertex="1" parent="1">
          <mxGeometry x="513.22" y="228.89999999999998" width="33.56" height="34.2" as="geometry" />
        </mxCell>
        <mxCell id="pa6gpyf7rV9sRwyNa2Qg-135" style="edgeStyle=none;rounded=0;orthogonalLoop=1;jettySize=auto;html=1;exitX=1;exitY=0.5;exitDx=0;exitDy=0;entryX=0.5;entryY=0.35;entryDx=0;entryDy=0;entryPerimeter=0;" edge="1" parent="1" source="pa6gpyf7rV9sRwyNa2Qg-52" target="pa6gpyf7rV9sRwyNa2Qg-131">
          <mxGeometry relative="1" as="geometry" />
        </mxCell>
        <mxCell id="pa6gpyf7rV9sRwyNa2Qg-136" style="edgeStyle=none;rounded=0;orthogonalLoop=1;jettySize=auto;html=1;exitX=1;exitY=0.5;exitDx=0;exitDy=0;entryX=0.625;entryY=0.438;entryDx=0;entryDy=0;entryPerimeter=0;" edge="1" parent="1" source="pa6gpyf7rV9sRwyNa2Qg-51" target="pa6gpyf7rV9sRwyNa2Qg-52">
          <mxGeometry relative="1" as="geometry" />
        </mxCell>
        <mxCell id="pa6gpyf7rV9sRwyNa2Qg-52" value="" style="image;html=1;image=img/lib/clip_art/networking/Router_128x128.png" vertex="1" parent="1">
          <mxGeometry x="330" y="85" width="80" height="80" as="geometry" />
        </mxCell>
        <mxCell id="pa6gpyf7rV9sRwyNa2Qg-137" value="" style="verticalLabelPosition=bottom;html=1;verticalAlign=top;align=center;strokeColor=none;fillColor=#00BEF2;shape=mxgraph.azure.laptop;pointerEvents=1;" vertex="1" parent="1">
          <mxGeometry x="451.78" y="442.5" width="50" height="30" as="geometry" />
        </mxCell>
        <mxCell id="pa6gpyf7rV9sRwyNa2Qg-139" style="edgeStyle=none;rounded=0;orthogonalLoop=1;jettySize=auto;html=1;exitX=0.375;exitY=0.594;exitDx=0;exitDy=0;entryX=0.652;entryY=1.006;entryDx=0;entryDy=0;entryPerimeter=0;exitPerimeter=0;" edge="1" parent="1" source="pa6gpyf7rV9sRwyNa2Qg-118">
          <mxGeometry relative="1" as="geometry">
            <mxPoint x="579.56" y="473.8736000000001" as="targetPoint" />
          </mxGeometry>
        </mxCell>
        <mxCell id="pa6gpyf7rV9sRwyNa2Qg-140" value="" style="image;points=[];aspect=fixed;html=1;align=center;shadow=0;dashed=0;image=img/lib/allied_telesis/computer_and_terminals/VOIP_IP_phone.svg;" vertex="1" parent="1">
          <mxGeometry x="560" y="428" width="30" height="45.6" as="geometry" />
        </mxCell>
        <mxCell id="pa6gpyf7rV9sRwyNa2Qg-142" value="" style="edgeStyle=none;rounded=0;orthogonalLoop=1;jettySize=auto;html=1;exitX=0.25;exitY=0.313;exitDx=0;exitDy=0;entryX=0.3;entryY=0.706;entryDx=0;entryDy=0;entryPerimeter=0;exitPerimeter=0;endArrow=none;endFill=0;" edge="1" parent="1" source="pa6gpyf7rV9sRwyNa2Qg-107" target="pa6gpyf7rV9sRwyNa2Qg-141">
          <mxGeometry relative="1" as="geometry">
            <mxPoint x="550" y="553" as="sourcePoint" />
            <mxPoint x="470.9999999999998" y="620.5029999999999" as="targetPoint" />
          </mxGeometry>
        </mxCell>
        <mxCell id="pa6gpyf7rV9sRwyNa2Qg-141" value="" style="image;points=[];aspect=fixed;html=1;align=center;shadow=0;dashed=0;image=img/lib/allied_telesis/computer_and_terminals/VOIP_IP_phone.svg;" vertex="1" parent="1">
          <mxGeometry x="451.78" y="586.9" width="30" height="45.6" as="geometry" />
        </mxCell>
        <mxCell id="pa6gpyf7rV9sRwyNa2Qg-147" style="edgeStyle=none;rounded=0;orthogonalLoop=1;jettySize=auto;html=1;exitX=0.85;exitY=0.06;exitDx=0;exitDy=0;exitPerimeter=0;" edge="1" parent="1" source="pa6gpyf7rV9sRwyNa2Qg-143">
          <mxGeometry relative="1" as="geometry">
            <mxPoint x="560" y="570" as="targetPoint" />
          </mxGeometry>
        </mxCell>
        <mxCell id="pa6gpyf7rV9sRwyNa2Qg-143" value="" style="shape=mxgraph.signs.sports.snowboarder;html=1;pointerEvents=1;fillColor=#000000;strokeColor=none;verticalLabelPosition=bottom;verticalAlign=top;align=center;" vertex="1" parent="1">
          <mxGeometry x="481.78" y="636.5" width="30" height="22" as="geometry" />
        </mxCell>
        <mxCell id="pa6gpyf7rV9sRwyNa2Qg-145" style="edgeStyle=none;rounded=0;orthogonalLoop=1;jettySize=auto;html=1;exitX=0.75;exitY=0.531;exitDx=0;exitDy=0;entryX=0.516;entryY=0.7;entryDx=0;entryDy=0;entryPerimeter=0;exitPerimeter=0;" edge="1" parent="1" source="pa6gpyf7rV9sRwyNa2Qg-107" target="pa6gpyf7rV9sRwyNa2Qg-144">
          <mxGeometry relative="1" as="geometry" />
        </mxCell>
        <mxCell id="pa6gpyf7rV9sRwyNa2Qg-144" value="" style="image;html=1;image=img/lib/clip_art/networking/Print_Server_Wireless_128x128.png" vertex="1" parent="1">
          <mxGeometry x="444.22" y="525" width="50" height="50" as="geometry" />
        </mxCell>
        <mxCell id="pa6gpyf7rV9sRwyNa2Qg-148" value="" style="endArrow=none;html=1;rounded=0;entryX=0.333;entryY=0.55;entryDx=0;entryDy=0;entryPerimeter=0;exitX=0.625;exitY=0.469;exitDx=0;exitDy=0;exitPerimeter=0;strokeWidth=3;fillColor=#d5e8d4;strokeColor=#82b366;" edge="1" parent="1" source="pa6gpyf7rV9sRwyNa2Qg-33" target="pa6gpyf7rV9sRwyNa2Qg-38">
          <mxGeometry width="50" height="50" relative="1" as="geometry">
            <mxPoint x="340" y="520" as="sourcePoint" />
            <mxPoint x="390" y="470" as="targetPoint" />
          </mxGeometry>
        </mxCell>
        <mxCell id="pa6gpyf7rV9sRwyNa2Qg-38" value="" style="image;html=1;image=img/lib/clip_art/networking/Switch_128x128.png" vertex="1" parent="1">
          <mxGeometry x="150" y="112.5" width="60" height="50" as="geometry" />
        </mxCell>
        <mxCell id="pa6gpyf7rV9sRwyNa2Qg-149" value="" style="endArrow=none;html=1;rounded=0;entryX=0.333;entryY=0.55;entryDx=0;entryDy=0;entryPerimeter=0;exitX=0.5;exitY=0.531;exitDx=0;exitDy=0;exitPerimeter=0;strokeWidth=3;fillColor=#d5e8d4;strokeColor=#82b366;" edge="1" parent="1" source="pa6gpyf7rV9sRwyNa2Qg-15">
          <mxGeometry width="50" height="50" relative="1" as="geometry">
            <mxPoint x="180" y="400" as="sourcePoint" />
            <mxPoint x="180" y="150" as="targetPoint" />
            <Array as="points">
              <mxPoint x="210" y="370" />
            </Array>
          </mxGeometry>
        </mxCell>
        <mxCell id="pa6gpyf7rV9sRwyNa2Qg-150" value="" style="endArrow=none;html=1;rounded=0;entryX=0.5;entryY=0.344;entryDx=0;entryDy=0;entryPerimeter=0;exitX=0.5;exitY=0.531;exitDx=0;exitDy=0;exitPerimeter=0;strokeWidth=3;fillColor=#d5e8d4;strokeColor=#82b366;" edge="1" parent="1" source="pa6gpyf7rV9sRwyNa2Qg-15" target="pa6gpyf7rV9sRwyNa2Qg-33">
          <mxGeometry width="50" height="50" relative="1" as="geometry">
            <mxPoint x="190" y="410" as="sourcePoint" />
            <mxPoint x="190" y="160" as="targetPoint" />
          </mxGeometry>
        </mxCell>
        <mxCell id="pa6gpyf7rV9sRwyNa2Qg-33" value="" style="image;html=1;image=img/lib/clip_art/networking/Switch_128x128.png" vertex="1" parent="1">
          <mxGeometry x="120" y="352.5" width="80" height="80" as="geometry" />
        </mxCell>
        <mxCell id="pa6gpyf7rV9sRwyNa2Qg-15" value="" style="image;html=1;image=img/lib/clip_art/networking/Switch_128x128.png" vertex="1" parent="1">
          <mxGeometry x="130" y="527.5" width="80" height="80" as="geometry" />
        </mxCell>
        <mxCell id="pa6gpyf7rV9sRwyNa2Qg-151" value="" style="endArrow=none;html=1;rounded=0;entryX=0.5;entryY=0.344;entryDx=0;entryDy=0;entryPerimeter=0;exitX=0.5;exitY=0.531;exitDx=0;exitDy=0;exitPerimeter=0;strokeWidth=3;fillColor=#d5e8d4;strokeColor=#82b366;" edge="1" parent="1">
          <mxGeometry width="50" height="50" relative="1" as="geometry">
            <mxPoint x="570" y="570" as="sourcePoint" />
            <mxPoint x="560" y="380" as="targetPoint" />
          </mxGeometry>
        </mxCell>
        <mxCell id="pa6gpyf7rV9sRwyNa2Qg-152" value="" style="endArrow=none;html=1;rounded=0;entryX=0.333;entryY=0.55;entryDx=0;entryDy=0;entryPerimeter=0;exitX=0.5;exitY=0.531;exitDx=0;exitDy=0;exitPerimeter=0;strokeWidth=3;fillColor=#d5e8d4;strokeColor=#82b366;" edge="1" parent="1">
          <mxGeometry width="50" height="50" relative="1" as="geometry">
            <mxPoint x="580" y="550" as="sourcePoint" />
            <mxPoint x="590" y="130" as="targetPoint" />
            <Array as="points">
              <mxPoint x="620" y="350" />
            </Array>
          </mxGeometry>
        </mxCell>
        <mxCell id="pa6gpyf7rV9sRwyNa2Qg-153" value="" style="endArrow=none;html=1;rounded=0;entryX=0.333;entryY=0.55;entryDx=0;entryDy=0;entryPerimeter=0;exitX=0.625;exitY=0.469;exitDx=0;exitDy=0;exitPerimeter=0;strokeWidth=3;fillColor=#d5e8d4;strokeColor=#82b366;" edge="1" parent="1">
          <mxGeometry width="50" height="50" relative="1" as="geometry">
            <mxPoint x="579.4100000000001" y="390" as="sourcePoint" />
            <mxPoint x="579.4100000000001" y="140" as="targetPoint" />
          </mxGeometry>
        </mxCell>
        <mxCell id="pa6gpyf7rV9sRwyNa2Qg-131" value="" style="image;html=1;image=img/lib/clip_art/networking/Switch_128x128.png" vertex="1" parent="1">
          <mxGeometry x="550" y="112.5" width="60" height="50" as="geometry" />
        </mxCell>
        <mxCell id="pa6gpyf7rV9sRwyNa2Qg-118" value="" style="image;html=1;image=img/lib/clip_art/networking/Switch_128x128.png" vertex="1" parent="1">
          <mxGeometry x="520" y="352.5" width="80" height="80" as="geometry" />
        </mxCell>
        <mxCell id="pa6gpyf7rV9sRwyNa2Qg-107" value="" style="image;html=1;image=img/lib/clip_art/networking/Switch_128x128.png" vertex="1" parent="1">
          <mxGeometry x="530" y="527.5" width="80" height="80" as="geometry" />
        </mxCell>
        <mxCell id="pa6gpyf7rV9sRwyNa2Qg-154" style="edgeStyle=none;rounded=0;orthogonalLoop=1;jettySize=auto;html=1;exitX=0.564;exitY=0.5;exitDx=0;exitDy=0;entryX=0.6;entryY=0.635;entryDx=0;entryDy=0;entryPerimeter=0;exitPerimeter=0;fillColor=#f8cecc;strokeColor=#b85450;strokeWidth=3;" edge="1" parent="1" source="pa6gpyf7rV9sRwyNa2Qg-44" target="pa6gpyf7rV9sRwyNa2Qg-9">
          <mxGeometry relative="1" as="geometry" />
        </mxCell>
        <mxCell id="pa6gpyf7rV9sRwyNa2Qg-44" value="" style="image;html=1;image=img/lib/clip_art/computers/Server_Rack_128x128.png" vertex="1" parent="1">
          <mxGeometry x="51.78" y="219.5" width="50" height="53" as="geometry" />
        </mxCell>
        <mxCell id="pa6gpyf7rV9sRwyNa2Qg-155" style="edgeStyle=none;rounded=0;orthogonalLoop=1;jettySize=auto;html=1;exitX=0.564;exitY=0.5;exitDx=0;exitDy=0;entryX=0.564;entryY=0.387;entryDx=0;entryDy=0;entryPerimeter=0;exitPerimeter=0;fillColor=#f8cecc;strokeColor=#b85450;strokeWidth=3;" edge="1" parent="1" target="pa6gpyf7rV9sRwyNa2Qg-126">
          <mxGeometry relative="1" as="geometry">
            <mxPoint x="310" y="225.6" as="sourcePoint" />
            <mxPoint x="560" y="209.6" as="targetPoint" />
          </mxGeometry>
        </mxCell>
        <mxCell id="pa6gpyf7rV9sRwyNa2Qg-126" value="" style="image;html=1;image=img/lib/clip_art/computers/Server_Rack_128x128.png" vertex="1" parent="1">
          <mxGeometry x="451.78" y="219.5" width="50" height="53" as="geometry" />
        </mxCell>
        <mxCell id="pa6gpyf7rV9sRwyNa2Qg-9" value="Cloud" style="image;aspect=fixed;perimeter=ellipsePerimeter;html=1;align=center;shadow=0;dashed=0;spacingTop=3;image=img/lib/active_directory/internet_cloud.svg;" vertex="1" parent="1">
          <mxGeometry x="300" y="210" width="50" height="31.5" as="geometry" />
        </mxCell>
      </root>
    </mxGraphModel>
  </diagram>
</mxfile>
